# xmcd
# 
# Track frame offsets:
#     150
#     23597
#     38053
#     49901
#     62742
#     75445
#     91917
#     107796
#     119086
#     136825
#     149434
#     161097
#     174081
#     187380
#     199374
#     211642
#     226242
#     238672
#     251921
#     264080
# 
# Disc length: 3670
# 
# Revision: 3
# Processed by: cddbd v1.5.2PL0 Copyright (c) Steve Scherf et al.
# Submitted via: fre:ac v1.0.17
# 
DISCID=160e5414
DTITLE=B.B. King - Eight Classic Albums - my kind of blues (1961) easy listening blues (1962)
DYEAR=2014
DGENRE=Blues
TTITLE0=You Done Lost Your Good Thing Now
TTITLE1=Mr. Pawn Broker
TTITLE2=Understand
TTITLE3=Someday Baby
TTITLE4=Driving Wheel
TTITLE5=Walking Dr. Bill
TTITLE6=My Own Fault, Baby
TTITLE7=Cat Fish Blues
TTITLE8=Hold That Train
TTITLE9=Please Set The Date
TTITLE10=Easy Listening Blues
TTITLE11=Blues For Me
TTITLE12=Night Long
TTITLE13=Confessin'
TTITLE14=Don't Touch
TTITLE15=Slow Walk
TTITLE16=Walkin'
TTITLE17=Hully Gully
TTITLE18=Shoutin' The Blues
TTITLE19=Rambler
EXTD=
EXTT0=
EXTT1=
EXTT2=
EXTT3=
EXTT4=
EXTT5=
EXTT6=
EXTT7=
EXTT8=
EXTT9=
EXTT10=
EXTT11=
EXTT12=
EXTT13=
EXTT14=
EXTT15=
EXTT16=
EXTT17=
EXTT18=
EXTT19=
PLAYORDER=
